<svg width="1280" height="942" viewBox="0 0 1280 942" fill="none" xmlns="http://www.w3.org/2000/svg">
<rect x="-3" y="318" width="1282" height="624" fill="#34357B"/>
<path d="M803.617 208.704L882 329.411C882 329.411 797.355 331.622 743.15 333.882C691.528 336.035 662.594 337.513 611.018 340.588C538.368 344.92 425.138 354 425.138 354C425.138 354 418.727 304.888 436.336 257.881C450.719 219.486 463.21 190.822 472.168 157.292C481.126 123.762 492.708 74.1237 519.198 58.9377C526.393 54.8131 538.651 55.2341 546.072 58.9377C577.425 74.585 561.749 101.409 577.425 112.585C597.058 126.582 599.646 86.9314 623.684 85C673.466 81 656.602 155.056 678.998 157.292C701.393 159.527 700.665 122.163 720.483 127.939C736.16 136.88 749.058 143.911 764.734 168.5C780.411 193.089 803.617 208.704 803.617 208.704Z" fill="#220C62"/>
<path d="M811.275 219.729L890 341.246C890 341.246 804.986 343.472 750.544 345.747C698.696 347.914 669.635 349.402 617.835 352.498C544.867 356.859 431.143 366 431.143 366C431.143 366 424.704 316.558 442.39 269.236C456.835 230.583 469.381 201.726 478.378 167.972C487.376 134.217 499.008 84.2453 525.614 68.9574C532.84 64.8051 545.152 65.229 552.605 68.9574C584.095 84.7097 568.351 111.714 584.095 122.965C603.814 137.056 606.413 97.139 630.556 95.1946C680.556 91.1678 663.618 165.721 686.111 167.972C708.604 170.222 707.873 132.607 727.778 138.421C743.523 147.423 756.477 154.501 772.222 179.255C787.967 204.009 811.275 219.729 811.275 219.729Z" stroke="white" stroke-width="3"/>
<path d="M595.818 117.662C595.818 109.687 585.226 114.083 581.62 115.361C579.445 133.512 583.52 188.205 585.677 193.572C589.644 203.444 593.295 206.212 601.903 210.702C635.706 228.338 607.987 231.405 593.114 249.808C581.215 264.53 590.86 291.099 601.903 298L656 290.952C642.479 290.697 615.153 272.703 611.367 257.981C606.635 239.579 645.847 238.812 634.354 222.71C622.861 206.607 599.874 204.307 599.198 185.138C598.522 165.968 595.818 129.164 595.818 117.662Z" fill="#5052FF"/>
<path d="M617.301 271.875C600.261 278.261 599.994 341.78 601.991 372.741L596 380.723C669.666 388.463 817.93 397.703 821.657 372.741C826.317 341.538 782.383 216 756.423 216C730.462 216 729.797 227.61 714.487 250.831C699.177 274.052 638.602 263.893 617.301 271.875Z" fill="#572046"/>
<path d="M613.301 281.354C596.261 287.223 595.994 345.601 597.991 374.057L592 381.393C665.666 388.507 813.93 396.999 817.657 374.057C822.317 345.379 778.383 230 752.423 230C726.462 230 725.797 240.671 710.487 262.013C695.177 283.354 634.602 274.017 613.301 281.354Z" stroke="white" stroke-width="3"/>
<path d="M212.636 166.811C188.93 173.617 207.969 29 146.014 29C91.9628 29 94.1233 166.811 54.6129 217.482C32.2232 227.09 31.3072 288.35 32.2231 323.172C64.7096 388.428 434.333 368.984 444.869 340.559C455.405 312.135 425.716 191.408 381.376 183C337.037 174.593 334.681 259.725 297.366 191.667C260.051 123.609 236.342 160.005 212.636 166.811Z" fill="#3368AD"/>
<path d="M216.323 178.246C192.658 185.023 216.323 41 149.151 41C107.884 41 98.0158 178.246 58.5738 228.708C36.2228 238.276 35.3084 299.284 36.2228 333.963C68.653 398.95 437.637 417.462 448.154 389.154C458.672 360.847 422.736 201.37 378.474 192.997C334.211 184.625 338.155 260.775 300.904 192.997C263.654 125.219 239.989 171.468 216.323 178.246Z" stroke="white" stroke-width="3"/>
<path d="M341.995 402C339.18 372.902 340.662 310.961 369.108 295.973C404.665 277.239 378.886 254.121 430 266.477" stroke="white" stroke-width="3"/>
<path d="M108 232.961C131.803 233.627 176.656 226.01 165.643 190.215C151.878 145.471 146.716 127.493 165.643 95.533C180.786 69.965 165.357 49.191 155.749 42" stroke="white" stroke-width="3"/>
<path d="M139.923 516.923C210.42 457.296 322.913 481.793 322.913 450.447C322.913 419.102 165.422 445.613 165.422 396.058C165.422 368.461 233.557 367.642 264.475 351.378C273.428 346.443 279.416 340.377 279.416 332C279.416 340.501 273.548 346.604 264.475 351.378C237.955 365.993 185.421 370.678 185.421 396.058C185.421 421.88 373.911 403.31 368.411 450.447C362.757 498.904 274.055 479.364 192.921 516.923C169.423 527.801 122.498 708.651 435.907 726.018C784.887 745.357 1152.87 696.608 1283.36 818.681C1387.75 916.34 1326.86 934.443 1283.36 926.251C1230.69 888.111 885.881 794.508 546.901 794.508C80.4062 794.508 69.4273 576.549 139.923 516.923Z" fill="#FFB98B"/>
<path d="M121.544 700.888C115.934 702.746 110.017 703.388 104.158 702.775C98.2997 702.161 92.6252 700.306 87.4869 697.323C81.4389 693.734 76.3228 688.673 72.5797 682.577C68.8365 676.481 66.5784 669.532 66 662.33C66.2567 653.295 69.5215 644.632 75.2394 637.812C82.0092 631.445 89.188 625.562 96.7263 620.204C101.453 616.638 104.569 614.298 105.966 609.729C107.362 605.16 105.966 603.711 105.966 595.687C105.294 589.663 106.379 583.568 109.081 578.191C110.773 575.641 113.118 573.633 115.851 572.392C118.585 571.152 121.599 570.728 124.552 571.17C127.285 571.723 129.843 572.968 131.999 574.796C134.155 576.624 135.841 578.977 136.907 581.646C138.149 588.607 138.149 595.746 136.907 602.708C136.262 611.735 135.832 613.852 136.907 616.75C138.841 622.322 142.493 622.879 146.253 627.225C152.008 636.581 154.192 647.826 152.377 658.763C153.167 668.555 151.028 678.361 146.253 686.847C143.324 690.865 139.608 694.194 135.349 696.614C131.09 699.034 126.385 700.491 121.544 700.888Z" fill="#FFEFB7"/>
<path d="M105.436 706.442C98.0053 706.646 90.7075 704.527 84.6495 700.407C68.76 689.275 71.9162 668.466 73.7663 660.038C76.0892 647.348 87.4116 630.991 98.2267 623.305L99.315 622.576C102.633 620.964 105.281 618.323 106.824 615.085C107.249 613.445 107.249 611.731 106.824 610.091C106.671 607.839 106.671 605.58 106.824 603.328C106.095 597.487 107.355 591.576 110.416 586.473C112.509 583.817 115.311 581.75 118.528 580.486C121.745 579.223 125.259 578.811 128.7 579.294C131.827 579.779 135.461 581.645 138 583.456C140.539 585.267 137.907 591.971 139.283 594.698C140.667 601.221 140.667 607.944 139.283 614.467V618.004C139.283 622.999 139.283 624.143 139.283 625.912C140.224 628.024 141.869 629.78 143.963 630.906C145.526 631.991 146.984 633.21 148.316 634.547C151.492 638.775 153.754 643.566 154.969 648.64C156.183 653.714 156.327 658.969 155.39 664.096C156.178 673.318 153.769 682.532 148.534 690.315C145.248 694.178 141.166 697.354 136.541 699.645C131.917 701.936 126.849 703.294 121.652 703.633C116.435 705.377 110.962 706.325 105.436 706.442ZM125.761 583.56C123.532 583.609 121.342 584.129 119.348 585.083C117.353 586.036 115.604 587.399 114.225 589.074C111.826 593.451 110.877 598.423 111.504 603.328C111.504 606.138 111.504 608.114 111.504 609.675C112.143 611.923 112.143 614.294 111.504 616.542C109.643 620.761 106.292 624.222 102.036 626.322L101.056 627.05C91.2784 634.131 80.699 649.515 78.6637 661.079C76.8136 668.57 73.9839 687.194 87.4791 696.87C92.3813 699.581 97.847 701.228 103.489 701.696C109.131 702.163 114.812 701.44 120.129 699.575C124.729 699.366 129.231 698.229 133.338 696.238C137.446 694.248 141.067 691.449 143.963 688.026C148.588 680.984 150.689 672.693 149.949 664.408C151.673 655.217 149.606 645.745 144.181 637.981C143.016 636.859 141.741 635.849 140.372 634.964C137.589 633.321 135.418 630.882 134.168 627.993C133.186 624.588 133.186 620.993 134.168 617.588V614.051C135.191 608.23 135.191 602.288 134.168 596.467C133.151 594.401 136.061 587.866 134.168 586.473C132.275 585.08 129.635 583.867 127.285 583.456L125.761 583.56Z" fill="#66645E"/>
<path d="M117.027 664.742L110.727 664.974L113.856 743L120.157 742.768L117.027 664.742Z" fill="#66645E"/>
<path d="M876.538 690.919C881.401 691.953 886.405 691.843 891.227 690.596C896.049 689.349 900.581 686.994 904.533 683.682C909.203 679.749 912.953 674.628 915.467 668.749C917.98 662.871 919.185 656.407 918.977 649.904C917.804 641.829 914.145 634.456 908.623 629.042C902.273 624.231 895.655 619.87 888.81 615.985C885.075 614.442 881.921 611.54 879.862 607.753C878.328 604.205 879.862 602.36 878.456 595.264C878.329 589.782 876.775 584.459 873.982 579.937C872.314 577.878 870.163 576.376 867.77 575.599C865.377 574.822 862.836 574.8 860.432 575.537C858.211 576.413 856.208 577.86 854.586 579.759C852.965 581.658 851.77 583.956 851.101 586.465C850.899 592.81 851.677 599.146 853.401 605.199C854.808 613.146 855.447 614.849 854.808 617.688C853.785 622.939 850.845 623.932 848.161 628.19C844.49 637.094 843.81 647.162 846.243 656.574C846.633 665.411 849.492 673.894 854.424 680.843C857.212 684.231 860.64 686.892 864.464 688.634C868.287 690.376 872.411 691.156 876.538 690.919Z" fill="#ECC700"/>
<path d="M889.913 693.278C895.942 692.64 901.608 689.766 906.011 685.112C910.033 679.668 912.574 673.046 913.332 666.032C914.09 659.019 913.033 651.909 910.287 645.549C907.052 633.663 899.904 623.598 890.29 617.39H889.284C886.415 616.268 883.975 614.082 882.367 611.195C881.768 609.743 881.508 608.144 881.613 606.548C881.761 604.393 881.761 602.228 881.613 600.072C881.54 594.404 879.818 588.917 876.708 584.444C874.733 582.2 872.252 580.597 869.528 579.804C866.805 579.01 863.941 579.057 861.239 579.938C858.736 580.752 856.451 582.244 854.587 584.282C852.722 586.321 851.335 588.842 850.549 591.624C850.12 598 850.804 604.407 852.561 610.491L853.316 613.87C854.196 618.516 854.448 619.502 853.316 621.332C852.82 623.453 851.716 625.333 850.172 626.682C848.961 627.863 847.865 629.185 846.902 630.624C842.718 639.51 841.859 649.892 844.513 659.487C844.899 668.327 847.858 676.782 852.939 683.563C856.015 686.864 859.674 689.409 863.681 691.034C867.688 692.658 871.954 693.327 876.205 692.996C880.734 693.884 885.358 693.979 889.913 693.278ZM863.629 583.458C865.432 583.253 867.253 583.487 868.968 584.143C870.682 584.799 872.25 585.862 873.564 587.26C876.028 591.12 877.347 595.749 877.337 600.494C877.337 603.169 877.337 605 877.337 606.548C877.171 608.783 877.563 611.025 878.469 613.025C880.456 616.765 883.514 619.643 887.146 621.191H888.152C896.81 626.768 903.242 635.832 906.137 646.534C908.587 652.107 909.581 658.343 909.002 664.521C908.424 670.699 906.297 676.568 902.867 681.451C899.193 684.657 894.931 686.913 890.387 688.057C885.842 689.201 881.128 689.205 876.582 688.068C872.834 688.427 869.06 687.898 865.506 686.515C861.952 685.132 858.699 682.927 855.957 680.043C851.507 673.815 848.912 666.184 848.537 658.22C846.072 649.754 846.706 640.54 850.298 632.595C851.124 631.375 852.05 630.244 853.064 629.216C855.17 627.309 856.67 624.692 857.34 621.754C857.845 618.591 857.584 615.334 856.586 612.321V609.083C855.107 603.658 854.427 597.999 854.574 592.328C855.192 590.265 856.229 588.39 857.604 586.851C858.979 585.312 860.654 584.151 862.497 583.458H863.629Z" fill="#66645E"/>
<path d="M880.942 654.242L887.02 729.472L881.843 730L875.766 654.771L880.942 654.242Z" fill="#66645E"/>
<path d="M991.433 831.71C987.146 832.617 982.735 832.52 978.484 831.426C974.233 830.332 970.237 828.266 966.754 825.359C962.637 821.909 959.331 817.415 957.115 812.257C954.899 807.099 953.837 801.428 954.02 795.722C955.054 788.637 958.28 782.168 963.148 777.417C968.747 773.196 974.58 769.369 980.615 765.961C983.907 764.607 986.688 762.061 988.503 758.738C989.856 755.625 988.503 754.006 989.743 747.78C989.855 742.97 991.224 738.299 993.687 734.332C995.157 732.526 997.053 731.208 999.163 730.526C1001.27 729.844 1003.51 729.825 1005.63 730.471C1007.59 731.24 1009.36 732.51 1010.79 734.176C1012.22 735.842 1013.27 737.858 1013.86 740.06C1014.04 745.627 1013.35 751.186 1011.83 756.497C1010.59 763.47 1010.03 764.964 1010.59 767.455C1011.49 772.062 1014.08 772.934 1016.45 776.67C1019.69 784.483 1020.29 793.317 1018.14 801.575C1017.8 809.329 1015.28 816.771 1010.93 822.869C1008.47 825.841 1005.45 828.176 1002.08 829.704C998.707 831.233 995.072 831.918 991.433 831.71Z" fill="#FFF164"/>
<path d="M979.641 833.779C974.326 833.22 969.331 830.698 965.45 826.614C961.904 821.838 959.664 816.027 958.996 809.873C958.327 803.72 959.259 797.482 961.68 791.901C964.532 781.472 970.833 772.641 979.308 767.193H980.195C982.724 766.209 984.876 764.291 986.293 761.758C986.821 760.484 987.05 759.081 986.958 757.681C986.828 755.79 986.828 753.89 986.958 751.998C987.022 747.025 988.54 742.211 991.282 738.286C993.024 736.318 995.211 734.911 997.612 734.215C1000.01 733.519 1002.54 733.56 1004.92 734.333C1007.13 735.047 1009.14 736.356 1010.78 738.144C1012.43 739.933 1013.65 742.145 1014.34 744.586C1014.72 750.18 1014.12 755.803 1012.57 761.14L1011.9 764.105C1011.13 768.182 1010.91 769.047 1011.9 770.652C1012.34 772.514 1013.31 774.163 1014.68 775.347C1015.74 776.383 1016.71 777.543 1017.56 778.806C1021.25 786.602 1022 795.712 1019.66 804.131C1019.32 811.887 1016.72 819.305 1012.24 825.255C1009.52 828.152 1006.3 830.385 1002.77 831.81C999.234 833.236 995.473 833.822 991.726 833.532C987.733 834.311 983.656 834.394 979.641 833.779ZM1002.81 737.421C1001.22 737.241 999.618 737.446 998.106 738.022C996.594 738.598 995.212 739.53 994.054 740.757C991.882 744.144 990.718 748.206 990.728 752.369C990.728 754.716 990.728 756.322 990.728 757.681C990.874 759.642 990.528 761.609 989.73 763.364C987.978 766.645 985.282 769.17 982.08 770.529H981.193C973.561 775.422 967.891 783.375 965.339 792.765C963.178 797.655 962.302 803.126 962.812 808.547C963.322 813.968 965.197 819.118 968.221 823.402C971.46 826.215 975.217 828.194 979.223 829.198C983.23 830.202 987.385 830.205 991.393 829.208C994.698 829.523 998.025 829.059 1001.16 827.845C1004.29 826.632 1007.16 824.697 1009.58 822.167C1013.5 816.702 1015.79 810.006 1016.12 803.019C1018.29 795.591 1017.73 787.506 1014.56 780.535C1013.84 779.464 1013.02 778.472 1012.13 777.57C1010.27 775.897 1008.95 773.601 1008.36 771.023C1007.91 768.247 1008.14 765.39 1009.02 762.746V759.905C1010.33 755.145 1010.92 750.179 1010.8 745.204C1010.25 743.394 1009.34 741.749 1008.12 740.398C1006.91 739.048 1005.44 738.029 1003.81 737.421H1002.81Z" fill="#66645E"/>
<path d="M987.553 799.528L982.195 865.536L986.759 866L992.117 799.992L987.553 799.528Z" fill="#66645E"/>
<path d="M1068.27 853.761C1071.79 854.508 1075.41 854.428 1078.9 853.528C1082.39 852.627 1085.67 850.925 1088.53 848.531C1091.91 845.69 1094.62 841.989 1096.44 837.741C1098.26 833.494 1099.13 828.823 1098.98 824.124C1098.13 818.289 1095.49 812.962 1091.49 809.049C1086.89 805.573 1082.11 802.422 1077.15 799.615C1074.45 798.5 1072.17 796.403 1070.68 793.667C1069.57 791.103 1070.68 789.77 1069.66 784.642C1069.57 780.681 1068.44 776.835 1066.42 773.567C1065.21 772.08 1063.66 770.994 1061.93 770.433C1060.19 769.871 1058.35 769.856 1056.62 770.388C1055.01 771.021 1053.56 772.067 1052.38 773.439C1051.21 774.811 1050.35 776.471 1049.86 778.284C1049.72 782.869 1050.28 787.447 1051.53 791.821C1052.54 797.564 1053.01 798.794 1052.54 800.845C1051.8 804.64 1049.68 805.358 1047.73 808.434C1045.08 814.868 1044.59 822.143 1046.35 828.944C1046.63 835.329 1048.7 841.459 1052.27 846.48C1054.28 848.928 1056.77 850.851 1059.53 852.11C1062.3 853.368 1065.28 853.932 1068.27 853.761Z" fill="#C06880"/>
<path d="M1077.95 855.465C1082.31 855.005 1086.41 852.928 1089.6 849.564C1092.51 845.631 1094.35 840.846 1094.9 835.778C1095.45 830.71 1094.68 825.573 1092.69 820.977C1090.35 812.389 1085.18 805.116 1078.22 800.63H1077.49C1075.42 799.819 1073.65 798.24 1072.49 796.154C1072.06 795.104 1071.87 793.949 1071.94 792.796C1072.05 791.238 1072.05 789.674 1071.94 788.116C1071.89 784.021 1070.64 780.056 1068.39 776.824C1066.96 775.203 1065.17 774.044 1063.2 773.471C1061.23 772.898 1059.15 772.931 1057.2 773.568C1055.39 774.156 1053.73 775.234 1052.38 776.707C1051.04 778.18 1050.03 780.002 1049.46 782.012C1049.15 786.619 1049.65 791.249 1050.92 795.645L1051.47 798.086C1052.1 801.444 1052.28 802.156 1051.47 803.478C1051.11 805.011 1050.31 806.37 1049.19 807.344C1048.31 808.198 1047.52 809.153 1046.82 810.193C1043.8 816.614 1043.17 824.115 1045.09 831.049C1045.37 837.436 1047.52 843.546 1051.19 848.445C1053.42 850.831 1056.07 852.67 1058.97 853.844C1061.87 855.018 1064.95 855.501 1068.03 855.262C1071.31 855.903 1074.65 855.972 1077.95 855.465ZM1058.93 776.112C1060.23 775.963 1061.55 776.132 1062.79 776.606C1064.03 777.08 1065.17 777.849 1066.12 778.858C1067.9 781.648 1068.86 784.993 1068.85 788.422C1068.85 790.354 1068.85 791.677 1068.85 792.796C1068.73 794.411 1069.01 796.031 1069.67 797.476C1071.11 800.178 1073.32 802.258 1075.95 803.377H1076.68C1082.94 807.407 1087.6 813.956 1089.69 821.689C1091.46 825.716 1092.18 830.222 1091.76 834.686C1091.35 839.15 1089.81 843.391 1087.32 846.919C1084.67 849.236 1081.58 850.866 1078.29 851.692C1075 852.519 1071.59 852.522 1068.3 851.701C1065.59 851.96 1062.86 851.578 1060.29 850.578C1057.72 849.579 1055.36 847.986 1053.38 845.902C1050.16 841.402 1048.28 835.887 1048.01 830.133C1046.22 824.016 1046.68 817.358 1049.28 811.617C1049.88 810.735 1050.55 809.918 1051.28 809.176C1052.81 807.798 1053.89 805.907 1054.38 803.784C1054.74 801.498 1054.55 799.144 1053.83 796.967V794.628C1052.76 790.707 1052.27 786.618 1052.38 782.521C1052.82 781.03 1053.57 779.675 1054.57 778.563C1055.56 777.451 1056.78 776.612 1058.11 776.112H1058.93Z" fill="#66645E"/>
<path d="M1071.46 827.259L1075.86 881.618L1072.11 882L1067.71 827.641L1071.46 827.259Z" fill="#66645E"/>
<path d="M1025.11 887.313C1028.89 888.655 1032.91 889.15 1036.91 888.767C1040.9 888.384 1044.79 887.132 1048.32 885.09C1052.48 882.664 1056.04 879.234 1058.7 875.091C1061.35 870.947 1063.02 866.211 1063.56 861.282C1063.5 855.055 1061.37 849.071 1057.54 844.349C1052.98 839.986 1048.15 835.931 1043.1 832.21C1040.27 830.614 1038.06 828.061 1036.83 824.967C1035.98 822.113 1037.41 820.899 1037.06 815.384C1037.56 811.234 1036.89 807.039 1035.15 803.305C1034.04 801.56 1032.48 800.178 1030.64 799.315C1028.81 798.453 1026.78 798.142 1024.78 798.42C1022.9 798.824 1021.14 799.684 1019.63 800.929C1018.13 802.174 1016.92 803.769 1016.11 805.585C1015.26 810.347 1015.19 815.216 1015.92 819.981C1016.18 826.138 1016.5 827.497 1015.68 829.564C1014.29 833.406 1011.83 833.816 1009.22 836.717C1005.31 843.009 1003.67 850.525 1004.59 857.906C1003.94 864.616 1005.31 871.345 1008.5 877.157C1010.36 880.034 1012.82 882.438 1015.69 884.194C1018.56 885.95 1021.78 887.015 1025.11 887.313Z" fill="#FFA500"/>
<path d="M1035.57 890.638C1040.46 890.854 1045.31 889.341 1049.35 886.339C1053.16 882.698 1055.91 877.997 1057.28 872.794C1058.66 867.592 1058.58 862.107 1057.08 856.992C1055.78 847.653 1051.15 839.235 1044.13 833.44L1043.32 833.324C1041.15 832.146 1039.43 830.215 1038.46 827.852C1038.14 826.687 1038.1 825.451 1038.36 824.26C1038.71 822.651 1038.95 821.018 1039.07 819.375C1039.63 815.091 1038.84 810.753 1036.84 807.02C1035.5 805.099 1033.69 803.603 1031.6 802.69C1029.5 801.777 1027.2 801.481 1024.94 801.833C1022.85 802.158 1020.86 803.019 1019.14 804.341C1017.43 805.663 1016.04 807.405 1015.11 809.412C1014.07 814.171 1013.92 819.084 1014.67 823.875L1014.9 826.512C1015.1 830.118 1015.2 830.89 1014.09 832.14C1013.46 833.683 1012.38 834.973 1010.99 835.812C1009.89 836.563 1008.87 837.433 1007.94 838.408C1003.63 844.627 1001.81 852.358 1002.89 859.902C1002.24 866.615 1003.68 873.334 1007.01 879.036C1009.12 881.882 1011.77 884.225 1014.8 885.913C1017.83 887.602 1021.18 888.599 1024.62 888.841C1028.15 890.035 1031.84 890.641 1035.57 890.638ZM1026.47 804.765C1027.94 804.818 1029.37 805.205 1030.67 805.898C1031.98 806.591 1033.12 807.574 1034.02 808.78C1035.57 811.977 1036.12 815.621 1035.6 819.199C1035.31 821.217 1035.11 822.597 1034.94 823.766C1034.56 825.432 1034.63 827.169 1035.14 828.782C1036.32 831.832 1038.46 834.357 1041.2 835.944L1042 836.061C1048.33 841.268 1052.49 848.848 1053.65 857.255C1055 861.742 1055.12 866.56 1053.98 871.154C1052.85 875.747 1050.5 879.928 1047.23 883.215C1043.94 885.208 1040.28 886.417 1036.51 886.755C1032.75 887.092 1028.97 886.55 1025.46 885.168C1022.42 885.005 1019.45 884.17 1016.76 882.716C1014.06 881.262 1011.7 879.223 1009.81 876.73C1006.93 871.519 1005.68 865.462 1006.25 859.412C1005.2 852.741 1006.71 845.864 1010.45 840.287C1011.24 839.462 1012.11 838.716 1013.03 838.058C1014.93 836.863 1016.41 835.062 1017.27 832.924C1018.02 830.596 1018.16 828.109 1017.69 825.721L1018.04 823.279C1017.45 819.015 1017.52 814.668 1018.26 810.408C1018.98 808.923 1020.01 807.629 1021.28 806.627C1022.55 805.625 1024.02 804.943 1025.57 804.634L1026.47 804.765Z" fill="#66645E"/>
<path d="M1032.63 860.157L1029.3 917.604L1025.1 917.404L1028.43 859.957L1032.63 860.157Z" fill="#66645E"/>
<path d="M807.055 667.066C816.032 663.292 824.006 657.652 830.391 650.562C838.821 641.759 843.334 630.188 842.981 618.285C841.772 609.849 838.513 601.798 833.462 594.77C828.088 586.153 825.632 586.007 822.561 578.997C820.707 571.74 819.374 564.371 818.57 556.943C817.289 549.363 814.19 542.166 809.511 535.911C804.173 529.107 796.783 524.013 788.324 521.306C780.58 518.958 772.33 518.556 764.374 520.138C757.027 520.736 750.105 523.668 744.722 528.462C742.018 531.782 740.064 535.597 738.981 539.668C737.898 543.739 737.709 547.979 738.427 552.123C740.345 560.439 743.608 568.421 748.1 575.783C752.859 585.131 755.776 589.366 754.241 594.77C753.32 597.837 751.938 597.983 747.793 603.387C743.013 608.997 739.699 615.603 738.12 622.666C738.007 629.499 740.155 636.192 744.262 641.799C749.013 650.408 755.791 657.855 764.067 663.561C770.503 668.767 778.516 671.888 786.943 672.47C794.026 672.359 800.957 670.497 807.055 667.066Z" fill="#FECA7D"/>
<path d="M788.228 671.741C779.786 673.425 770.997 672.171 763.425 668.201C743.062 657.432 741.99 631.027 742.449 620.259C741.888 604.577 747.338 589.244 757.76 577.186L758.832 576.005C762.334 573.339 764.769 569.586 765.721 565.384C765.896 563.291 765.636 561.184 764.956 559.189C764.089 556.434 763.424 553.625 762.965 550.781C760.713 543.766 760.713 536.259 762.965 529.244C764.609 525.686 767.265 522.648 770.624 520.482C773.983 518.316 777.91 517.108 781.95 517C785.72 517.122 789.399 518.143 792.659 519.971C795.918 521.798 798.657 524.376 800.629 527.474C803.752 535.283 805.311 543.592 805.222 551.961V556.386C805.085 559.737 805.766 563.072 807.213 566.122C808.643 568.564 810.919 570.444 813.643 571.432C815.69 572.419 817.594 573.659 819.308 575.12C828.826 584.602 834.292 597.188 834.618 610.376C837.562 621.556 836.921 633.334 832.781 644.157C830.107 649.447 826.271 654.113 821.539 657.831C816.807 661.55 811.291 664.233 805.375 665.693C800.04 668.597 794.248 670.64 788.228 671.741ZM780.266 522.901C777.691 523.32 775.27 524.367 773.234 525.942C771.197 527.517 769.612 529.567 768.63 531.899C766.76 537.813 766.76 544.129 768.63 550.043C768.63 553.436 770.008 555.796 770.467 557.714C771.546 560.49 771.913 563.475 771.539 566.417C770.419 571.816 767.455 576.698 763.118 580.283L762.047 581.316C752.482 592.337 747.42 606.341 747.808 620.702C747.808 630.437 747.808 653.892 765.721 663.333C771.805 665.784 778.406 666.808 784.98 666.32C791.555 665.833 797.915 663.849 803.538 660.53C808.749 659.306 813.617 656.994 817.797 653.756C821.977 650.519 825.368 646.436 827.729 641.796C831.442 632.049 831.923 621.431 829.107 611.409C829.166 599.797 824.809 588.567 816.858 579.841C815.31 578.688 813.672 577.653 811.959 576.743C808.257 575.248 805.184 572.599 803.232 569.22C801.346 565.398 800.402 561.208 800.476 556.976V552.698C800.459 545.279 799.218 537.91 796.802 530.866C795.326 528.515 793.266 526.555 790.806 525.164C788.347 523.773 785.566 522.995 782.716 522.901H780.266Z" fill="#66645E"/>
<path d="M805.203 632.702L798.145 634.154L817.744 722L824.802 720.547L805.203 632.702Z" fill="#66645E"/>
<path d="M755.729 697.795C752.21 698.435 748.589 698.367 745.099 697.595C741.61 696.823 738.329 695.364 735.47 693.312C732.09 690.877 729.376 687.705 727.557 684.064C725.738 680.423 724.866 676.42 725.017 672.392C725.865 667.391 728.514 662.824 732.51 659.471C737.105 656.491 741.894 653.79 746.848 651.384C749.551 650.428 751.833 648.631 753.324 646.286C754.434 644.088 753.324 642.946 754.341 638.551C754.433 635.156 755.557 631.858 757.579 629.058C758.786 627.783 760.342 626.852 762.074 626.371C763.806 625.89 765.645 625.876 767.385 626.332C768.992 626.875 770.442 627.771 771.615 628.948C772.789 630.124 773.653 631.547 774.138 633.101C774.283 637.03 773.72 640.955 772.473 644.704C771.455 649.626 770.992 650.681 771.455 652.439C772.195 655.691 774.323 656.307 776.265 658.944C778.922 664.458 779.414 670.694 777.653 676.524C777.371 681.997 775.302 687.25 771.733 691.554C769.715 693.653 767.234 695.301 764.467 696.38C761.7 697.459 758.716 697.942 755.729 697.795Z" fill="#FFD6BA"/>
<path d="M746.05 699.255C741.687 698.861 737.587 697.081 734.4 694.198C731.49 690.826 729.651 686.725 729.102 682.381C728.554 678.037 729.319 673.634 731.306 669.694C733.647 662.333 738.82 656.099 745.777 652.254H746.505C748.581 651.559 750.347 650.205 751.511 648.417C751.945 647.518 752.132 646.527 752.057 645.539C751.95 644.204 751.95 642.863 752.057 641.528C752.109 638.018 753.355 634.619 755.606 631.849C757.036 630.459 758.831 629.466 760.802 628.975C762.773 628.483 764.846 628.512 766.801 629.058C768.612 629.562 770.266 630.486 771.615 631.749C772.965 633.011 773.968 634.573 774.537 636.296C774.847 640.245 774.353 644.213 773.081 647.981L772.535 650.074C771.898 652.952 771.716 653.562 772.535 654.696C772.893 656.009 773.693 657.174 774.81 658.009C775.687 658.741 776.48 659.559 777.176 660.451C780.204 665.954 780.826 672.384 778.906 678.327C778.626 683.802 776.484 689.039 772.808 693.239C770.582 695.283 767.934 696.86 765.034 697.866C762.134 698.872 759.047 699.286 755.97 699.081C752.693 699.631 749.346 699.69 746.05 699.255ZM765.072 631.238C763.767 631.111 762.449 631.256 761.208 631.662C759.967 632.069 758.832 632.727 757.882 633.593C756.099 635.984 755.144 638.851 755.151 641.79C755.151 643.447 755.151 644.58 755.151 645.539C755.271 646.923 754.988 648.312 754.332 649.551C752.894 651.867 750.681 653.649 748.052 654.608H747.324C741.059 658.063 736.404 663.676 734.309 670.304C732.536 673.756 731.817 677.618 732.236 681.445C732.654 685.271 734.194 688.906 736.676 691.931C739.334 693.916 742.419 695.313 745.707 696.022C748.996 696.73 752.408 696.733 755.697 696.029C758.41 696.251 761.141 695.923 763.713 695.067C766.285 694.211 768.639 692.845 770.623 691.059C773.844 687.201 775.722 682.475 775.993 677.542C777.777 672.299 777.319 666.592 774.719 661.672C774.121 660.916 773.451 660.215 772.717 659.579C771.193 658.398 770.107 656.777 769.622 654.957C769.257 652.998 769.446 650.981 770.168 649.115V647.109C771.239 643.749 771.731 640.244 771.625 636.732C771.177 635.454 770.426 634.293 769.432 633.34C768.437 632.386 767.225 631.667 765.891 631.238H765.072Z" fill="#66645E"/>
<path d="M752.543 675.079L748.145 721.672L751.89 722L756.289 675.406L752.543 675.079Z" fill="#66645E"/>
<path d="M1241.34 764.387C1250.75 760.428 1259.1 754.514 1265.79 747.078C1274.62 737.844 1279.35 725.71 1278.98 713.226C1277.71 704.379 1274.3 695.935 1269.01 688.564C1263.38 679.526 1260.8 679.373 1257.59 672.021C1255.65 664.41 1254.25 656.682 1253.41 648.891C1252.06 640.942 1248.82 633.394 1243.92 626.834C1238.32 619.698 1230.58 614.355 1221.72 611.516C1213.61 609.054 1204.96 608.632 1196.63 610.291C1188.93 610.918 1181.68 613.993 1176.04 619.021C1173.21 622.503 1171.16 626.504 1170.03 630.774C1168.89 635.044 1168.7 639.491 1169.45 643.836C1171.46 652.558 1174.87 660.929 1179.58 668.651C1184.57 678.454 1187.62 682.896 1186.01 688.564C1185.05 691.781 1183.6 691.934 1179.26 697.601C1174.25 703.484 1170.78 710.413 1169.13 717.821C1169.01 724.987 1171.26 732.007 1175.56 737.887C1180.54 746.916 1187.64 754.726 1196.31 760.71C1203.05 766.17 1211.45 769.443 1220.27 770.054C1227.69 769.937 1234.96 767.984 1241.34 764.387Z" fill="#FFEFB7"/>
<path d="M1221.62 769.29C1212.77 771.056 1203.57 769.74 1195.63 765.576C1174.3 754.283 1173.18 726.59 1173.66 715.296C1173.07 698.849 1178.78 682.768 1189.7 670.121L1190.82 668.883C1194.49 666.088 1197.04 662.151 1198.04 657.744C1198.22 655.549 1197.95 653.34 1197.24 651.247C1196.33 648.358 1195.63 645.411 1195.15 642.428C1192.79 635.071 1192.79 627.198 1195.15 619.841C1196.88 616.11 1199.66 612.924 1203.18 610.652C1206.7 608.38 1210.81 607.114 1215.04 607C1218.99 607.128 1222.85 608.199 1226.26 610.116C1229.68 612.033 1232.54 614.736 1234.61 617.985C1237.88 626.175 1239.51 634.889 1239.42 643.666V648.307C1239.28 651.822 1239.99 655.319 1241.51 658.518C1243.01 661.08 1245.39 663.051 1248.24 664.088C1250.39 665.123 1252.38 666.423 1254.18 667.955C1264.15 677.9 1269.88 691.1 1270.22 704.931C1273.3 716.657 1272.63 729.009 1268.29 740.359C1265.49 745.907 1261.47 750.801 1256.52 754.701C1251.56 758.602 1245.78 761.415 1239.58 762.947C1233.99 765.992 1227.92 768.134 1221.62 769.29ZM1213.28 613.189C1210.58 613.628 1208.04 614.726 1205.91 616.378C1203.78 618.03 1202.12 620.18 1201.09 622.626C1199.13 628.828 1199.13 635.453 1201.09 641.655C1201.09 645.213 1202.53 647.689 1203.01 649.7C1204.14 652.611 1204.53 655.742 1204.13 658.827C1202.96 664.49 1199.86 669.61 1195.31 673.37L1194.19 674.453C1184.17 686.012 1178.87 700.699 1179.27 715.76C1179.27 725.971 1179.27 750.57 1198.04 760.471C1204.41 763.042 1211.33 764.115 1218.22 763.604C1225.1 763.093 1231.77 761.012 1237.66 757.532C1243.12 756.248 1248.22 753.823 1252.6 750.428C1256.97 747.032 1260.53 742.75 1263 737.884C1266.89 727.661 1267.39 716.525 1264.44 706.014C1264.51 693.836 1259.94 682.058 1251.61 672.906C1249.99 671.698 1248.27 670.612 1246.48 669.657C1242.6 668.089 1239.38 665.311 1237.34 661.767C1235.36 657.759 1234.37 653.364 1234.45 648.926V644.44C1234.43 636.659 1233.13 628.93 1230.6 621.543C1229.05 619.076 1226.9 617.021 1224.32 615.562C1221.74 614.103 1218.83 613.288 1215.84 613.189H1213.28Z" fill="#66645E"/>
<path d="M1239.4 728.346L1232.01 729.869L1252.54 822L1259.94 820.476L1239.4 728.346Z" fill="#66645E"/>
<path d="M197.48 612.61C199.77 613.124 202.183 613.13 204.478 612.628C206.772 612.126 208.868 611.133 210.554 609.748C214.486 606.599 216.792 602.308 216.987 597.777C217.181 593.247 215.249 588.83 211.597 585.457C208.635 583.24 205.47 581.215 202.132 579.401C200.244 578.535 198.751 577.179 197.881 575.542C197.294 573.718 196.997 571.839 196.998 569.952C196.825 567.618 196.03 565.345 194.672 563.297C194.009 562.41 193.019 561.723 191.848 561.34C190.678 560.956 189.39 560.896 188.175 561.167C187.065 561.601 186.107 562.263 185.392 563.09C184.676 563.916 184.226 564.881 184.084 565.892C184.002 568.725 184.435 571.551 185.368 574.277C186.034 576.087 186.332 577.976 186.25 579.867C186.25 582.197 184.485 582.596 183.282 584.459C181.739 588.645 181.739 593.118 183.282 597.303C183.568 601.161 184.971 604.905 187.373 608.217C188.535 609.547 190.052 610.634 191.806 611.396C193.559 612.158 195.501 612.574 197.48 612.61Z" fill="#FFD6BA"/>
<path d="M203.683 614.821C205.21 614.74 206.7 614.395 208.063 613.806C209.426 613.217 210.631 612.397 211.604 611.398C213.409 608.702 214.468 605.695 214.701 602.603C214.934 599.51 214.336 596.413 212.951 593.545C211.482 588.435 208.022 583.895 203.129 580.659H202.654C201.21 579.991 200.047 578.959 199.327 577.706C199.03 577.042 198.895 576.334 198.931 575.625C198.931 574.887 198.931 573.947 198.931 572.672C198.86 570.15 197.984 567.692 196.396 565.558C195.623 564.553 194.491 563.784 193.167 563.361C191.842 562.939 190.393 562.885 189.03 563.209C187.757 563.651 186.642 564.366 185.795 565.284C184.948 566.202 184.398 567.291 184.198 568.444C184.105 571.323 184.532 574.198 185.465 576.968V578.444C185.724 579.575 185.724 580.736 185.465 581.867C185.341 582.77 184.834 583.605 184.039 584.216C183.491 584.752 183.013 585.337 182.614 585.961C180.741 590.149 180.491 594.733 181.901 599.048C182.187 602.978 183.69 606.774 186.257 610.056C187.548 611.51 189.224 612.686 191.15 613.491C193.077 614.295 195.199 614.705 197.346 614.687C199.432 615.053 201.579 615.099 203.683 614.821ZM189.742 564.752C190.646 564.702 191.55 564.848 192.368 565.177C193.186 565.506 193.891 566.007 194.416 566.632C195.706 568.457 196.39 570.544 196.396 572.672C196.396 573.88 196.396 574.685 196.396 575.357C196.375 576.367 196.59 577.37 197.03 578.31C197.878 579.951 199.358 581.299 201.228 582.135H201.703C206.233 585.067 209.469 589.204 210.891 593.881C212.119 596.408 212.664 599.136 212.485 601.866C212.307 604.595 211.411 607.255 209.862 609.653C208.32 611.032 206.346 612.011 204.172 612.474C201.998 612.938 199.713 612.867 197.584 612.27C195.691 612.332 193.809 612.004 192.098 611.314C190.388 610.624 188.9 609.594 187.762 608.31C185.525 605.325 184.217 601.907 183.96 598.377C182.699 594.558 182.865 590.502 184.435 586.766C184.775 586.243 185.173 585.749 185.624 585.29C186.634 584.372 187.32 583.233 187.604 582.001C187.758 580.557 187.597 579.101 187.129 577.706V576.162C186.337 573.713 185.937 571.185 185.94 568.645C186.086 567.782 186.49 566.965 187.114 566.272C187.738 565.578 188.561 565.032 189.505 564.685L189.742 564.752Z" fill="#66645E"/>
<path d="M203.5 629.804L199.281 597L196.75 597.131L200.969 630L203.5 629.804Z" fill="#66645E"/>
<path d="M277.722 651.927C283.543 649.12 288.633 645.13 292.593 640.272C297.789 634.244 300.425 626.729 299.981 619.208C298.902 613.91 296.507 608.961 292.982 604.743C290.192 601.781 287.658 598.617 285.402 595.281C282.851 590.254 284.347 588.739 282.125 581.549C281.051 576.782 278.78 572.355 275.491 568.619C271.765 564.691 266.812 561.923 261.262 560.666C256.107 559.583 250.678 559.787 245.524 561.257C240.741 561.986 236.295 564.161 232.893 567.437C231.222 569.678 230.061 572.197 229.483 574.834C228.905 577.47 228.924 580.167 229.538 582.752C231.016 587.907 233.349 592.792 236.458 597.235C239.858 602.986 241.976 605.491 241.047 609.033C240.604 611.068 239.628 611.224 237.191 614.817C234.273 618.558 232.399 622.883 231.745 627.388C231.842 631.725 233.451 635.862 236.335 639.185C239.685 644.442 244.353 648.854 249.967 652.067C254.367 654.835 259.628 656.272 265.055 656.186C269.549 655.727 273.897 654.265 277.722 651.927Z" fill="#ECC700"/>
<path d="M267.066 657.128C260.999 658.576 254.772 655.109 246.369 650.304C241.829 648.209 237.957 645.094 235.092 641.233C233.56 639.414 232.486 637.295 231.943 635.019C231.4 632.744 231.401 630.368 231.946 628.054C232.639 626.228 233.948 624.638 235.675 623.527C237.071 622.632 238.155 621.375 238.78 619.922C239.823 616.448 239.518 612.793 237.92 609.602C236.868 606.766 235.379 604.099 233.498 601.681C232.396 600.241 231.091 598.309 229.371 595.701C225.297 590.343 222.586 584.173 221.43 577.63C221.258 575.08 221.839 572.507 223.113 570.186C223.71 569.068 224.529 568.058 225.525 567.211C227.39 565.844 229.567 564.899 231.87 564.458C235.691 563.318 239.784 563.591 243.273 565.219C247.714 567.326 251.399 570.541 253.929 574.517C256.56 578.725 258.452 583.312 259.537 588.114C260.302 590.508 260.886 592.954 261.285 595.436C261.513 597.592 262.017 599.706 262.788 601.733C262.788 601.733 263.154 603.27 264.01 604.381C264.866 605.493 268.484 607.57 271.103 608.647C272.041 609.043 272.962 609.365 273.643 609.744C281.729 613.928 282.22 625.883 282.313 629.808C282.588 636.028 280.911 642.26 277.484 647.754C275.649 651.658 272.364 654.863 268.245 656.769L267.066 657.128ZM233.29 566.519L232.652 566.671C230.733 567.019 228.919 567.797 227.371 568.937C226.607 569.583 225.96 570.339 225.458 571.174C224.439 573.115 223.989 575.253 224.152 577.367C225.334 583.532 227.9 589.35 231.689 594.451C233.39 596.986 234.758 598.826 235.798 600.358C237.843 602.893 239.43 605.727 240.502 608.754C242.347 612.429 242.636 616.659 241.312 620.633C240.5 622.492 239.127 624.111 237.362 625.291C236.074 626.157 235.067 627.337 234.461 628.692C234.017 630.672 234.026 632.7 234.49 634.644C234.954 636.587 235.861 638.401 237.152 639.967C239.768 643.555 243.358 646.428 247.581 648.313C256.196 653.299 261.937 656.495 267.305 654.594C270.851 652.861 273.65 650.022 275.184 646.6C278.304 641.52 279.858 635.787 279.671 630.052C279.488 626.458 279.065 615.492 272.147 611.958L269.784 610.897C266.527 609.958 263.683 608.131 261.613 605.65C261.1 604.728 260.648 603.776 260.258 602.801C259.401 600.59 258.85 598.278 258.615 595.918C258.231 593.434 257.647 590.986 256.868 588.596C255.806 584.051 254.002 579.707 251.515 575.712C249.253 572.066 245.92 569.112 241.884 567.176C239.22 566.062 236.191 565.83 233.29 566.519Z" fill="#66645E"/>
<path d="M262.356 634L259 634.684L270.048 685.572L273.404 684.889L262.356 634Z" fill="#66645E"/>
<path d="M432.603 738C429.206 717.31 434.584 717.892 436.054 717.651C437.523 717.41 443.534 716.515 445.993 731.498C446.503 734.606 447.543 740.192 447.777 742.365C452.918 741.521 453.309 743.882 454.078 744.733C454.427 745.381 454.576 746.085 454.585 746.805C454.646 751.69 449.018 754.355 444.198 755.147L441.524 755.585C439.438 756.661 433.758 748.068 432.603 738Z" fill="#273327"/>
<path d="M506.741 751.05C504.424 733.26 509.949 726.526 513.521 726.525C518.717 725.087 521.783 732.854 524.968 752.26C525.844 757.597 526.32 761.829 526.499 765.197C529.072 762.821 535.342 758.47 537.361 763.414C538.09 765.201 538.175 767.184 537.92 769.09C537.216 774.343 531.915 777.125 526.62 777.369L521.507 777.606C520.876 777.73 520.282 777.728 519.796 777.685C512.812 777.067 508.349 765.439 506.741 751.05Z" fill="#273327"/>
<path fill-rule="evenodd" clip-rule="evenodd" d="M436.099 725.698C436.068 728.053 436.388 731.061 436.822 733.705C437.256 736.349 437.947 739.501 438.765 741.923C439.179 743.146 439.597 744.1 439.988 744.702C439.991 744.706 439.993 744.709 439.995 744.713C440.108 744.046 440.123 743.081 440.051 741.893C439.903 739.442 439.413 736.448 439.032 734.13C438.652 731.814 438.127 728.622 437.45 726.055C437.109 724.759 436.752 723.714 436.396 723.039C436.393 723.032 436.389 723.025 436.385 723.018C436.215 723.629 436.115 724.541 436.099 725.698ZM433.786 722.199C434.035 721.349 434.607 720.088 435.971 719.864C436.754 719.736 437.396 720.066 437.829 720.448C438.242 720.812 438.559 721.297 438.808 721.77C439.311 722.726 439.731 724.015 440.085 725.36C440.798 728.065 441.341 731.374 441.716 733.659L441.727 733.723C442.101 736.003 442.614 739.125 442.771 741.729C442.85 743.025 442.848 744.294 442.658 745.302C442.564 745.803 442.405 746.339 442.113 746.797C441.803 747.284 441.298 747.738 440.566 747.859C439.845 747.977 439.227 747.719 438.775 747.386C438.341 747.065 437.989 746.627 437.702 746.185C437.126 745.297 436.621 744.09 436.184 742.795C435.3 740.181 434.58 736.871 434.133 734.146C433.686 731.423 433.34 728.24 433.374 725.662C433.391 724.386 433.502 723.165 433.786 722.199ZM518.819 767.448C518.751 767.384 518.658 767.284 518.542 767.133C518.108 766.564 517.604 765.596 517.077 764.266C516.036 761.634 515.039 757.93 514.326 754.115C513.613 750.297 513.203 746.463 513.292 743.569C513.337 742.109 513.507 740.987 513.772 740.248C513.903 739.883 514.034 739.678 514.127 739.576C514.17 739.528 514.198 739.51 514.208 739.504C514.215 739.5 514.218 739.499 514.223 739.498C514.83 739.399 515.885 739.636 517.041 741.523C518.203 743.419 519.281 746.744 519.812 752.075C519.883 752.789 519.952 753.473 520.018 754.128C520.463 758.524 520.776 761.613 520.635 763.825C520.555 765.072 520.335 765.878 520.019 766.419C519.764 766.855 519.403 767.192 518.819 767.448ZM511.208 739.328C511.598 738.238 512.354 737.044 513.782 736.809C515.903 736.461 517.89 737.694 519.364 740.099C520.833 742.497 521.974 746.289 522.523 751.805C522.593 752.512 522.663 753.195 522.73 753.856C523.17 758.188 523.511 761.543 523.354 763.999C523.262 765.438 522.994 766.73 522.371 767.795C521.72 768.907 520.753 769.654 519.502 770.108C518.796 770.364 518.12 770.212 517.595 769.915C517.106 769.637 516.703 769.215 516.375 768.785C515.714 767.918 515.101 766.676 514.544 765.269C513.417 762.423 512.38 758.537 511.648 754.616C510.916 750.698 510.471 746.65 510.568 743.485C510.617 741.914 510.801 740.462 511.208 739.328Z" fill="white"/>
<path d="M550.219 774.529L555.779 763.556L554.283 754.444L557.884 745.899L677.217 724.869C678.432 725.15 681.092 726.253 682.008 728.411C683.152 731.108 685.441 736.503 683.737 738.946C683.566 739.192 682.155 739.636 679.74 740.238L669.579 750.553L550.219 774.529Z" fill="#273327"/>
<path d="M487.61 619.123L417.167 641.775L526.387 659.581L646.362 633.727L487.61 619.123Z" fill="white"/>
<path fill-rule="evenodd" clip-rule="evenodd" d="M487.295 616.36L646.602 631.016L646.927 636.393L526.447 662.356L416.719 644.467L416.323 639.183L487.295 616.36ZM428.761 640.908L526.307 656.811L628.388 634.813L487.904 621.889L428.761 640.908Z" fill="#5052FF"/>
<path d="M405.345 656.262L413.246 730.154L423.358 740.246L432.408 743.104C429.389 733.301 428.482 717.374 435.617 716.203C442.753 715.032 447.144 736.346 448.447 747.149L506.624 766.75C504.099 754.231 500.339 724.186 508.145 724.506C517.029 724.87 522.773 757 524.459 770.135L534.525 772.153L550.864 774.423L557.72 764.676L556.112 754.881L559.31 748.608L678.235 726.213C676.011 685.191 656.585 649.364 646.166 633.111C602.978 627.554 556.07 640.154 538.616 648.288L526.817 647.351L503.574 642.897L458.838 637.239L456.532 641.726L410.451 638.991L405.345 656.262Z" fill="#5052FF"/>
<path fill-rule="evenodd" clip-rule="evenodd" d="M515.375 675.062L540.784 681.69L550.114 771.415L527.494 764.386L515.375 675.062ZM518.622 678.726L529.961 762.299L546.976 767.586L538.269 683.85L518.622 678.726Z" fill="white"/>
<path fill-rule="evenodd" clip-rule="evenodd" d="M592.55 674.175C613.351 670.832 637.675 667.087 653.728 664.658L654.457 664.547L654.948 665.098C656.56 666.905 658.077 669.911 659.474 673.426C660.889 676.984 662.239 681.214 663.47 685.592C665.932 694.35 667.941 703.792 669.04 709.819L669.186 710.624L668.545 711.131C667.785 711.733 666.7 712.298 665.422 712.838C664.124 713.386 662.544 713.941 660.739 714.499C657.127 715.615 652.537 716.767 647.34 717.91C636.942 720.198 624.027 722.472 611.455 724.381C598.883 726.29 586.629 727.838 577.55 728.67C573.016 729.085 569.243 729.325 566.607 729.337C565.303 729.344 564.209 729.296 563.423 729.165C563.05 729.103 562.62 729.004 562.257 728.81C562.072 728.71 561.811 728.538 561.607 728.246C561.376 727.914 561.268 727.495 561.346 727.061L561.346 727.061C561.346 727.058 561.352 727.015 561.354 726.916C561.356 726.818 561.353 726.688 561.344 726.524C561.325 726.194 561.281 725.767 561.211 725.242C561.071 724.195 560.836 722.827 560.523 721.204C559.897 717.961 558.973 713.767 557.918 709.229C555.81 700.158 553.189 689.762 551.42 682.958L551.122 681.812L552.214 681.357C552.578 681.206 553.169 681.048 553.855 680.887C554.577 680.717 555.511 680.519 556.628 680.296C558.863 679.851 561.867 679.3 565.452 678.673C572.624 677.417 582.149 675.846 592.55 674.175ZM554.391 683.56C556.149 690.358 558.586 700.066 560.573 708.612C561.63 713.162 562.563 717.394 563.198 720.687C563.516 722.332 563.762 723.759 563.912 724.882C563.987 725.442 564.04 725.943 564.064 726.366C564.067 726.412 564.069 726.46 564.072 726.507C564.63 726.579 565.468 726.618 566.594 726.613C569.109 726.6 572.79 726.369 577.301 725.956C586.311 725.131 598.509 723.591 611.046 721.687C623.584 719.784 636.435 717.52 646.755 715.249C651.917 714.113 656.424 712.98 659.934 711.895C661.689 711.353 663.176 710.828 664.362 710.327C665.127 710.004 665.735 709.705 666.198 709.434C665.081 703.454 663.164 694.575 660.846 686.33C659.629 682 658.308 677.869 656.942 674.433C655.723 671.367 654.512 668.969 653.371 667.468C637.322 669.898 613.445 673.577 592.982 676.865C582.586 678.536 573.075 680.104 565.922 681.357C562.345 681.983 559.364 682.529 557.16 682.968C556.057 683.188 555.158 683.38 554.479 683.539C554.449 683.546 554.42 683.553 554.391 683.56Z" fill="white"/>
<path fill-rule="evenodd" clip-rule="evenodd" d="M448.07 660.144L473.479 666.772L482.809 756.496L460.189 749.467L448.07 660.144ZM451.317 663.807L462.656 747.38L479.671 752.668L470.964 668.932L451.317 663.807Z" fill="white"/>
<path d="M541.587 654.761C540.811 656.696 545.649 668.403 548.165 674.015L653.331 656.753L644.331 639.403C601.804 634.334 542.557 652.343 541.587 654.761Z" fill="#273327"/>
<path d="M153.699 262.875C170.739 269.261 171.006 332.78 169.009 363.741L175 371.723C101.334 379.463 -46.9295 388.703 -50.6572 363.741C-55.3168 332.538 -11.3835 207 14.5771 207C40.5376 207 41.2033 218.61 56.5133 241.831C71.8234 265.052 132.398 254.893 153.699 262.875Z" fill="#524F49"/>
<path d="M157.699 272.354C174.739 278.223 175.006 336.601 173.009 365.057L179 372.393C105.334 379.507 -42.9295 387.999 -46.6572 365.057C-51.3168 336.379 -7.3835 221 18.5771 221C44.5376 221 45.2033 231.671 60.5133 253.013C75.8234 274.354 136.398 265.017 157.699 272.354Z" stroke="white" stroke-width="3"/>
<path d="M959 381.064C971.327 466 1259.86 449.68 1284.06 362.671C1297.02 316.077 1277.67 206.885 1230.99 193.212C1190.72 87.9076 1124.57 -19.1566 1058.23 2.91742C1024 14.31 1022.94 14.7807 1022.94 111.44C972.259 171.517 962.473 304.702 959 381.064Z" fill="#7012C7"/>
<path d="M971 318.778C981.71 387.566 1257.1 389.244 1278.13 318.778C1289.39 281.043 1247.88 177.715 1207.32 166.642C1172.33 81.3591 1108.59 3.70917 1050.95 21.5863C1021.21 30.8128 1015.03 21.5863 1015.03 99.8677C971 148.523 974.018 256.935 971 318.778Z" stroke="white" stroke-width="3"/>
<path d="M1099.57 371C1098.58 337.067 1082.56 257.984 1109.83 257.984C1146.45 257.984 1117.79 139.921 1141.28 136.181C1164.77 132.441 1200.68 137.073 1202 157.433" stroke="white" stroke-width="3"/>
<path d="M868.994 289.263C824.31 289.263 806.42 363.321 803.038 410.773C799.656 458.225 1025.28 434.668 1030.02 392.526C1039.32 309.885 980.791 177.54 928.794 192.109C876.797 206.677 913.678 289.263 868.994 289.263Z" fill="#8283BE"/>
<path d="M893 246.227C914.943 253.68 961.663 261.268 973 232" stroke="white" stroke-width="3"/>
<path d="M864.284 305.263C819.404 305.263 801.435 379.321 798.038 426.773C794.641 474.225 1021.25 450.668 1026.01 408.526C1035.35 325.885 976.571 193.54 924.346 208.109C872.121 222.677 909.164 305.263 864.284 305.263Z" stroke="white" stroke-width="3"/>
</svg>